<svg width="600" height="450" viewBox="0 0 800 600" fill="none" xmlns="http://www.w3.org/2000/svg" data-reactroot="">
<path d="M327.847 161.501C337.629 159.487 343.46 147.66 340.871 135.084C338.283 122.508 328.255 113.945 318.474 115.958C308.692 117.971 302.861 129.799 305.449 142.375C308.038 154.951 318.066 163.514 327.847 161.501Z" fill="#F5BF00"></path>
<path fill-rule="evenodd" clip-rule="evenodd" d="M323.915 129.519C324.846 129.198 325.861 129.692 326.182 130.623L328.698 137.919L327.222 138.59L327.221 138.591L327.211 138.595L327.166 138.616C327.125 138.635 327.061 138.665 326.979 138.705C326.815 138.785 326.576 138.904 326.288 139.055C325.708 139.36 324.946 139.788 324.194 140.289C323.429 140.799 322.742 141.34 322.265 141.86C322.03 142.118 321.879 142.333 321.793 142.5C321.711 142.659 321.709 142.73 321.709 142.73C321.709 142.73 321.709 142.73 321.709 142.73C321.709 143.879 322.017 144.443 322.281 144.74C322.566 145.06 322.995 145.283 323.575 145.406C324.158 145.53 324.784 145.526 325.297 145.48C325.546 145.457 325.752 145.426 325.89 145.401C325.958 145.389 326.009 145.379 326.039 145.372L326.068 145.366M326.069 145.366C326.069 145.366 326.069 145.366 326.069 145.366C327.024 145.138 327.985 145.725 328.216 146.681C328.448 147.638 327.86 148.602 326.903 148.834L326.492 147.137C326.903 148.834 326.902 148.834 326.902 148.834L326.896 148.836L326.887 148.838L326.86 148.844C326.84 148.849 326.812 148.855 326.779 148.862C326.714 148.876 326.624 148.894 326.513 148.913C326.292 148.952 325.986 148.999 325.62 149.032C324.903 149.097 323.89 149.119 322.834 148.895C321.775 148.67 320.564 148.173 319.62 147.114C318.655 146.033 318.143 144.561 318.143 142.729C318.143 141.356 318.925 140.226 319.636 139.45C320.388 138.629 321.341 137.904 322.215 137.321C322.956 136.827 323.69 136.403 324.29 136.078L322.81 131.786C322.489 130.855 322.984 129.84 323.915 129.519" fill="#333333"></path>
<path d="M492.804 142.392C495.392 129.816 489.561 117.989 479.78 115.976C469.998 113.963 459.97 122.526 457.382 135.102C454.794 147.678 460.625 159.505 470.406 161.518C480.188 163.532 490.215 154.969 492.804 142.392Z" fill="#F5BF00"></path>
<path fill-rule="evenodd" clip-rule="evenodd" d="M474.297 129.519C475.228 129.84 475.723 130.855 475.401 131.786L473.921 136.078C474.521 136.403 475.255 136.827 475.996 137.321C476.871 137.904 477.823 138.629 478.576 139.45C479.287 140.226 480.069 141.356 480.069 142.729C480.069 144.561 479.557 146.033 478.592 147.114C477.647 148.173 476.436 148.67 475.377 148.895C474.321 149.119 473.308 149.097 472.592 149.032C472.226 148.999 471.919 148.952 471.699 148.913C471.588 148.894 471.498 148.876 471.432 148.862C471.399 148.855 471.372 148.849 471.351 148.844L471.325 148.838L471.315 148.836L471.31 148.834C471.309 148.834 471.308 148.834 471.728 147.101L471.308 148.834C470.351 148.602 469.763 147.638 469.995 146.681C470.227 145.726 471.187 145.138 472.142 145.366L472.143 145.366L472.172 145.372C472.202 145.379 472.253 145.389 472.322 145.401C472.46 145.426 472.665 145.457 472.914 145.48C473.427 145.526 474.053 145.53 474.637 145.406C475.217 145.283 475.645 145.06 475.93 144.74C476.195 144.443 476.502 143.878 476.502 142.73C476.502 142.727 476.499 142.656 476.419 142.5C476.332 142.333 476.182 142.118 475.946 141.86C475.47 141.34 474.782 140.799 474.018 140.289C473.266 139.788 472.504 139.36 471.924 139.055C471.636 138.904 471.397 138.785 471.232 138.705C471.15 138.665 471.087 138.635 471.045 138.616L471 138.595L470.991 138.591L470.99 138.59L469.514 137.919L472.03 130.623C472.351 129.692 473.366 129.198 474.297 129.519ZM472.142 145.366C472.141 145.366 472.141 145.366 472.142 145.366V145.366ZM472.147 145.367C472.147 145.367 472.147 145.367 472.147 145.367V145.367ZM472.147 145.367C472.148 145.367 472.146 145.377 471.737 147.064L472.149 145.367C472.148 145.367 472.148 145.367 472.147 145.367Z" fill="#333333"></path>
<path fill-rule="evenodd" clip-rule="evenodd" d="M265.719 262.674C291.545 271.477 305.345 299.548 296.543 325.374L246.718 471.829C306.396 483.493 300.43 493.84 296.543 516.414C291.913 543.303 250.624 559.796 223.734 555.166L193.887 550.027C156.299 543.738 128.658 525.435 139.302 490.598L139.533 489.844L203.018 293.499C211.821 267.673 239.892 253.872 265.719 262.674Z" fill="#0366d6"></path>
<path fill-rule="evenodd" clip-rule="evenodd" d="M542.241 263.788C568.66 256.968 595.605 272.856 602.425 299.275L661.297 489.041L661.343 489.225C669.299 521.047 635.557 538.924 602.425 550.11L594.999 552.651C569.182 561.482 541.095 547.714 532.263 521.898C526.205 504.188 547.505 502.17 559.31 489.271L506.754 323.972C499.934 297.553 515.822 270.608 542.241 263.788Z" fill="#0366d6"></path>
<path d="M436.362 220.856H364.234C352.709 220.856 229.172 264.535 229.172 264.535L267.468 561.784H539.685L565.249 262.719C565.05 262.719 447.29 220.856 436.362 220.856Z" fill="#0366d6"></path>
<path d="M217.453 514.683C212.37 524.386 230.247 542.213 236.792 548.182L335.036 542.182L349.403 525.096C333.039 509.694 298.5 476.54 289.215 475.392C254.655 471.121 223.806 502.554 217.453 514.683Z" fill="#D7A441"></path>
<path d="M640.024 564.168L165.531 563.771L185.799 545.093C189.176 541.914 193.548 540.324 198.317 540.324H607.04C611.61 540.324 615.981 542.112 619.359 545.093L640.024 564.168Z" fill="#ebebff"></path>
<path d="M632.672 589.999H172.089C164.339 589.999 158.18 583.84 158.18 576.091C158.18 568.341 164.339 562.182 172.089 562.182H632.871C640.62 562.182 646.78 568.341 646.78 576.091C646.581 583.641 640.422 589.999 632.672 589.999Z" fill="#d73a49"></path>
<path d="M220.572 548.869H211.829C209.047 548.869 206.663 546.485 206.663 543.703C206.663 540.922 209.047 538.537 211.829 538.537H220.572C223.354 538.537 225.738 540.922 225.738 543.703C225.738 546.485 223.552 548.869 220.572 548.869Z" fill="#d73a49"></path>
<path d="M249.185 548.869H240.443C237.661 548.869 235.276 546.485 235.276 543.703C235.276 540.922 237.661 538.537 240.443 538.537H249.185C251.967 538.537 254.351 540.922 254.351 543.703C254.153 546.485 251.967 548.869 249.185 548.869Z" fill="#d73a49"></path>
<path d="M277.602 548.869H268.86C266.078 548.869 263.693 546.485 263.693 543.703C263.693 540.922 266.078 538.537 268.86 538.537H277.602C280.384 538.537 282.768 540.922 282.768 543.703C282.768 546.485 280.384 548.869 277.602 548.869Z" fill="#d73a49"></path>
<path d="M306.016 548.869H297.274C294.492 548.869 292.107 546.485 292.107 543.703C292.107 540.922 294.492 538.537 297.274 538.537H306.016C308.798 538.537 311.182 540.922 311.182 543.703C311.182 546.485 308.798 548.869 306.016 548.869Z" fill="#d73a49"></path>
<path d="M334.426 548.869H325.684C322.902 548.869 320.518 546.485 320.518 543.703C320.518 540.922 322.902 538.537 325.684 538.537H334.426C337.208 538.537 339.593 540.922 339.593 543.703C339.593 546.485 337.407 548.869 334.426 548.869Z" fill="#d73a49"></path>
<path d="M363.04 548.869H354.297C351.515 548.869 349.131 546.485 349.131 543.703C349.131 540.922 351.515 538.537 354.297 538.537H363.04C365.822 538.537 368.206 540.922 368.206 543.703C368.007 546.485 365.822 548.869 363.04 548.869Z" fill="#d73a49"></path>
<path d="M391.458 548.869H382.715C379.933 548.869 377.549 546.485 377.549 543.703C377.549 540.922 379.933 538.537 382.715 538.537H391.458C394.24 538.537 396.624 540.922 396.624 543.703C396.624 546.485 394.24 548.869 391.458 548.869Z" fill="#d73a49"></path>
<path d="M419.87 548.869H411.127C408.345 548.869 405.961 546.485 405.961 543.703C405.961 540.922 408.345 538.537 411.127 538.537H419.87C422.652 538.537 425.036 540.922 425.036 543.703C425.036 546.485 422.652 548.869 419.87 548.869Z" fill="#d73a49"></path>
<path d="M448.288 548.869H439.545C436.763 548.869 434.379 546.485 434.379 543.703C434.379 540.922 436.763 538.537 439.545 538.537H448.288C451.07 538.537 453.454 540.922 453.454 543.703C453.454 546.485 451.268 548.869 448.288 548.869Z" fill="#d73a49"></path>
<path d="M476.901 548.869H468.158C465.377 548.869 462.992 546.485 462.992 543.703C462.992 540.922 465.377 538.537 468.158 538.537H476.901C479.683 538.537 482.067 540.922 482.067 543.703C481.869 546.485 479.683 548.869 476.901 548.869Z" fill="#d73a49"></path>
<path d="M505.311 548.869H496.569C493.787 548.869 491.402 546.485 491.402 543.703C491.402 540.922 493.787 538.537 496.569 538.537H505.311C508.093 538.537 510.477 540.922 510.477 543.703C510.477 546.485 508.093 548.869 505.311 548.869Z" fill="#d73a49"></path>
<path d="M533.725 548.869H524.983C522.201 548.869 519.816 546.485 519.816 543.703C519.816 540.922 522.201 538.537 524.983 538.537H533.725C536.507 538.537 538.891 540.922 538.891 543.703C538.891 546.485 536.507 548.869 533.725 548.869Z" fill="#d73a49"></path>
<path d="M562.141 548.869H553.399C550.617 548.869 548.232 546.485 548.232 543.703C548.232 540.922 550.617 538.537 553.399 538.537H562.141C564.923 538.537 567.308 540.922 567.308 543.703C567.308 546.485 565.122 548.869 562.141 548.869Z" fill="#d73a49"></path>
<path d="M590.755 548.869H582.012C579.23 548.869 576.846 546.485 576.846 543.703C576.846 540.922 579.23 538.537 582.012 538.537H590.755C593.536 538.537 595.921 540.922 595.921 543.703C595.722 546.485 593.536 548.869 590.755 548.869Z" fill="#d73a49"></path>
<path d="M211.237 557.412H202.494C199.713 557.412 197.328 555.028 197.328 552.246C197.328 549.464 199.713 547.08 202.494 547.08H211.237C214.019 547.08 216.403 549.464 216.403 552.246C216.205 555.227 214.019 557.412 211.237 557.412Z" fill="#d73a49"></path>
<path d="M239.653 557.412H230.91C228.129 557.412 225.744 555.028 225.744 552.246C225.744 549.464 228.129 547.08 230.91 547.08H239.653C242.435 547.08 244.819 549.464 244.819 552.246C244.819 555.227 242.435 557.412 239.653 557.412Z" fill="#d73a49"></path>
<path d="M268.061 557.412H259.319C256.537 557.412 254.152 555.028 254.152 552.246C254.152 549.464 256.537 547.08 259.319 547.08H268.061C270.843 547.08 273.227 549.464 273.227 552.246C273.227 555.227 270.843 557.412 268.061 557.412Z" fill="#d73a49"></path>
<path d="M296.479 557.412H287.736C284.955 557.412 282.57 555.028 282.57 552.246C282.57 549.464 284.955 547.08 287.736 547.08H296.479C299.261 547.08 301.645 549.464 301.645 552.246C301.645 555.227 299.46 557.412 296.479 557.412Z" fill="#d73a49"></path>
<path d="M325.091 557.412H316.348C313.566 557.412 311.182 555.028 311.182 552.246C311.182 549.464 313.566 547.08 316.348 547.08H325.091C327.872 547.08 330.257 549.464 330.257 552.246C330.058 555.227 327.872 557.412 325.091 557.412Z" fill="#d73a49"></path>
<path d="M353.505 557.412H344.762C341.98 557.412 339.596 555.028 339.596 552.246C339.596 549.464 341.98 547.08 344.762 547.08H353.505C356.286 547.08 358.671 549.464 358.671 552.246C358.671 555.227 356.286 557.412 353.505 557.412Z" fill="#d73a49"></path>
<path d="M381.915 557.412H373.172C370.39 557.412 368.006 555.028 368.006 552.246C368.006 549.464 370.39 547.08 373.172 547.08H381.915C384.697 547.08 387.081 549.464 387.081 552.246C387.081 555.227 384.697 557.412 381.915 557.412Z" fill="#d73a49"></path>
<path d="M410.333 557.412H401.59C398.808 557.412 396.424 555.028 396.424 552.246C396.424 549.464 398.808 547.08 401.59 547.08H410.333C413.115 547.08 415.499 549.464 415.499 552.246C415.499 555.227 413.313 557.412 410.333 557.412Z" fill="#d73a49"></path>
<path d="M438.946 557.412H430.203C427.422 557.412 425.037 555.028 425.037 552.246C425.037 549.464 427.422 547.08 430.203 547.08H438.946C441.728 547.08 444.112 549.464 444.112 552.246C443.914 555.227 441.728 557.412 438.946 557.412Z" fill="#d73a49"></path>
<path d="M467.358 557.412H458.615C455.834 557.412 453.449 555.028 453.449 552.246C453.449 549.464 455.834 547.08 458.615 547.08H467.358C470.14 547.08 472.524 549.464 472.524 552.246C472.524 555.227 470.14 557.412 467.358 557.412Z" fill="#d73a49"></path>
<path d="M495.776 557.412H487.033C484.252 557.412 481.867 555.028 481.867 552.246C481.867 549.464 484.252 547.08 487.033 547.08H495.776C498.558 547.08 500.942 549.464 500.942 552.246C500.942 555.227 498.558 557.412 495.776 557.412Z" fill="#d73a49"></path>
<path d="M524.184 557.412H515.442C512.66 557.412 510.275 555.028 510.275 552.246C510.275 549.464 512.66 547.08 515.442 547.08H524.184C526.966 547.08 529.35 549.464 529.35 552.246C529.35 555.227 527.165 557.412 524.184 557.412Z" fill="#d73a49"></path>
<path d="M552.8 557.412H544.057C541.275 557.412 538.891 555.028 538.891 552.246C538.891 549.464 541.275 547.08 544.057 547.08H552.8C555.581 547.08 557.966 549.464 557.966 552.246C557.767 555.227 555.581 557.412 552.8 557.412Z" fill="#d73a49"></path>
<path d="M581.214 557.412H572.471C569.689 557.412 567.305 555.028 567.305 552.246C567.305 549.464 569.689 547.08 572.471 547.08H581.214C583.995 547.08 586.38 549.464 586.38 552.246C586.38 555.227 583.995 557.412 581.214 557.412Z" fill="#d73a49"></path>
<path d="M609.632 557.412H600.889C598.107 557.412 595.723 555.028 595.723 552.246C595.723 549.464 598.107 547.08 600.889 547.08H609.632C612.413 547.08 614.798 549.464 614.798 552.246C614.798 555.227 612.413 557.412 609.632 557.412Z" fill="#d73a49"></path>
<path d="M447.886 193.397L451.944 260.287C451.944 286.714 426.625 302.706 400.198 302.706C373.771 302.706 349.211 283.67 349.211 257.244L352.51 193.397H447.886Z" fill="#F5BF00"></path>
<path d="M447.885 193.397V220.818C447.885 220.818 431.987 241.709 414.628 244.255C400.045 246.394 382.052 245.832 372.968 237.243C356.927 222.074 352.51 193.397 352.51 193.397H447.885Z" fill="#B58D00"></path>
<path d="M333.034 111.733L339.989 167.766C340.585 171.939 341.777 176.111 343.764 179.886L362.044 215.652C366.416 225.985 376.351 232.74 387.676 232.74H412.911C424.038 232.74 434.172 225.985 438.543 215.652L456.625 180.483C458.811 176.31 460.003 171.939 460.4 167.17L465.169 113.72L456.824 71.1982L399.002 37.6182L347.539 48.3479L333.034 111.733Z" fill="#F5BF00"></path>
<path d="M399.201 207.306H401.982C404.963 207.306 407.546 205.717 409.136 203.332L418.276 187.834C418.276 187.834 389.862 191.212 384.1 189.026L391.849 203.134C393.438 205.717 396.22 207.306 399.201 207.306Z" fill="white"></path>
<path d="M431.986 131.205C434.619 131.205 436.754 129.248 436.754 126.833C436.754 124.419 434.619 122.462 431.986 122.462C429.352 122.462 427.217 124.419 427.217 126.833C427.217 129.248 429.352 131.205 431.986 131.205Z" fill="#333333"></path>
<path d="M369.402 131.205C372.035 131.205 374.17 129.248 374.17 126.833C374.17 124.419 372.035 122.462 369.402 122.462C366.768 122.462 364.633 124.419 364.633 126.833C364.633 129.248 366.768 131.205 369.402 131.205Z" fill="#333333"></path>
<path d="M346.546 82.9204C346.348 75.3698 352.507 69.0114 360.058 69.2101C374.165 69.4088 394.631 70.4023 401.387 74.9724C406.156 78.1516 411.918 83.3177 416.687 88.0865C421.257 92.6566 429.205 89.4774 429.404 83.119C429.404 81.1321 429.404 79.3438 429.006 78.1516C429.006 78.1516 432.782 83.1191 436.358 89.2787C440.133 95.6371 450.267 93.2527 450.267 85.7021C450.267 85.5034 450.267 85.3047 450.267 85.3047C450.267 85.3047 457.42 128.621 463.779 129.813C463.779 129.813 479.873 111.334 483.052 89.08C486.828 60.8648 475.899 26.8873 452.85 17.5485C403.772 -2.52013 363.237 22.7146 351.514 32.2522C351.514 32.2522 317.735 25.4964 316.344 53.1156C315.748 63.4479 314.158 93.6501 317.536 106.367C323.1 127.429 335.022 129.615 335.022 129.615L339.393 122.859C344.559 114.911 347.341 105.572 346.944 96.0345L346.546 82.9204Z" fill="#0366d6"></path>
<path fill-rule="evenodd" clip-rule="evenodd" d="M223.731 513.519C227.124 508.13 234.242 506.513 239.63 509.905L246.457 514.203L262.487 532.798C266.644 537.621 266.105 544.901 261.282 549.058C256.46 553.215 249.18 552.676 245.023 547.854L231.248 531.875L227.345 529.417C221.957 526.025 220.339 518.907 223.731 513.519Z" fill="#F5BF00"></path>
<path fill-rule="evenodd" clip-rule="evenodd" d="M244.129 499.212C247.631 493.894 254.781 492.422 260.099 495.924L270.122 502.525L291.665 533.783C295.278 539.025 293.957 546.205 288.714 549.818C283.471 553.431 276.292 552.11 272.679 546.867L253.687 519.31L247.417 515.181C242.099 511.679 240.627 504.53 244.129 499.212Z" fill="#F5BF00"></path>
<path fill-rule="evenodd" clip-rule="evenodd" d="M263.017 489.7C266.176 484.171 273.219 482.251 278.747 485.41L293.277 493.712L326.281 536.681C330.16 541.73 329.211 548.968 324.161 552.846C319.111 556.725 311.874 555.776 307.995 550.726L277.813 511.433L267.307 505.429C261.779 502.27 259.858 495.228 263.017 489.7Z" fill="#F5BF00"></path>
<path fill-rule="evenodd" clip-rule="evenodd" d="M509.018 512.338C510.758 519.215 506.594 526.201 499.716 527.941L487.947 530.919L481.351 540.603C477.357 546.466 469.367 547.981 463.504 543.988C457.641 539.994 456.125 532.003 460.119 526.14L472.2 508.404L493.415 503.036C500.292 501.296 507.278 505.461 509.018 512.338Z" fill="#D7A441"></path>
<path fill-rule="evenodd" clip-rule="evenodd" d="M278.877 480.774C282.356 475.442 289.5 473.941 294.832 477.42L333.737 502.811L360.113 530.835C364.477 535.472 364.256 542.768 359.619 547.132C354.982 551.496 347.686 551.275 343.322 546.638L318.831 520.617L282.23 496.73C276.898 493.25 275.397 486.106 278.877 480.774Z" fill="#F5BF00"></path>
<path fill-rule="evenodd" clip-rule="evenodd" d="M559.685 476.464C562.582 482.134 560.334 489.079 554.664 491.976L521.326 509.012L502.152 539.508C498.763 544.899 491.646 546.521 486.255 543.132C480.865 539.743 479.243 532.626 482.632 527.235L505.184 491.366L544.172 471.444C549.842 468.547 556.787 470.794 559.685 476.464Z" fill="#F5BF00"></path>
<path fill-rule="evenodd" clip-rule="evenodd" d="M577.285 480.666C580.825 485.958 579.404 493.118 574.112 496.658L544.903 516.194L518.751 547.691C514.683 552.59 507.415 553.264 502.516 549.196C497.617 545.129 496.943 537.86 501.011 532.962L529.302 498.888L561.293 477.492C566.585 473.952 573.745 475.373 577.285 480.666Z" fill="#F5BF00"></path>
<path fill-rule="evenodd" clip-rule="evenodd" d="M590.881 493.911C594.347 499.252 592.828 506.392 587.488 509.859L577.419 516.394L545.641 551.447C541.364 556.164 534.073 556.521 529.356 552.245C524.639 547.968 524.281 540.677 528.558 535.96L562.35 498.686L574.933 490.518C580.274 487.051 587.414 488.571 590.881 493.911Z" fill="#F5BF00"></path>
<path fill-rule="evenodd" clip-rule="evenodd" d="M595.747 504.751C601.676 507.071 604.602 513.759 602.282 519.688L597.64 531.55L568.583 556.087C563.718 560.195 556.444 559.582 552.336 554.717C548.228 549.852 548.841 542.578 553.706 538.47L578.297 517.704L580.809 511.286C583.129 505.356 589.817 502.431 595.747 504.751Z" fill="#F5BF00"></path>
<path d="M459.27 21.5656C461.455 21.1682 493.783 37.8156 496.167 49.7376H484.841C484.841 49.7376 492.789 62.4543 492.789 69.4087L470.932 58.0829L459.27 21.5656Z" fill="#0366d6"></path>
<mask id="mask0" mask-type="alpha" maskUnits="userSpaceOnUse" x="384" y="187" width="35" height="21">
<path d="M399.201 207.306H401.982C404.963 207.306 407.546 205.717 409.136 203.332L418.276 187.834C418.276 187.834 389.862 191.212 384.1 189.026L391.849 203.134C393.438 205.717 396.22 207.306 399.201 207.306Z" fill="white"></path>
</mask>
<g mask="url(#mask0)">
<path fill-rule="evenodd" clip-rule="evenodd" d="M382.211 193.496C381.985 193.33 381.667 193.379 381.5 193.605C381.333 193.832 381.381 194.151 381.608 194.318L381.911 193.908C381.608 194.318 381.608 194.318 381.608 194.318L381.611 194.321L381.615 194.324L381.629 194.333C381.639 194.341 381.654 194.351 381.672 194.363C381.709 194.388 381.762 194.422 381.831 194.464C381.97 194.548 382.176 194.664 382.457 194.801C383.018 195.075 383.877 195.433 385.096 195.788C387.533 196.499 391.407 197.2 397.21 197.2C400.431 197.2 405.782 196.548 410.297 195.903C412.561 195.579 414.626 195.256 416.125 195.014C416.874 194.892 417.482 194.791 417.903 194.72C418.113 194.685 418.277 194.657 418.388 194.638L418.558 194.609C418.558 194.609 418.558 194.609 418.471 194.106L418.558 194.609C418.835 194.561 419.022 194.297 418.974 194.019C418.926 193.742 418.662 193.556 418.384 193.604L418.216 193.633C418.106 193.651 417.943 193.679 417.734 193.714C417.315 193.785 416.709 193.885 415.962 194.006C414.468 194.248 412.409 194.571 410.153 194.893C405.628 195.539 400.348 196.179 397.21 196.179C391.489 196.179 387.713 195.489 385.382 194.809C384.216 194.469 383.411 194.131 382.904 193.884C382.651 193.76 382.472 193.659 382.359 193.591C382.303 193.557 382.263 193.531 382.239 193.515L382.215 193.498L382.211 193.496Z" fill="#DCDCDC"></path>
</g>
<path fill-rule="evenodd" clip-rule="evenodd" d="M331.993 121.619C333.117 120.056 335.295 119.7 336.858 120.823L343.216 125.394C344.779 126.517 345.136 128.695 344.012 130.258C342.889 131.821 340.711 132.177 339.148 131.054L332.789 126.484C331.226 125.36 330.87 123.182 331.993 121.619Z" fill="#333333"></path>
<path fill-rule="evenodd" clip-rule="evenodd" d="M470.745 122.247C471.522 124.009 470.724 126.066 468.963 126.843L462.208 129.824C460.446 130.601 458.389 129.803 457.612 128.042C456.835 126.28 457.633 124.223 459.394 123.446L466.15 120.465C467.911 119.688 469.968 120.486 470.745 122.247Z" fill="#333333"></path>
<path d="M455.235 142.331H419.072C417.085 142.331 415.297 140.742 415.297 138.556V120.077C415.297 118.09 416.886 116.302 419.072 116.302H455.235C457.222 116.302 459.011 117.891 459.011 120.077V138.556C459.011 140.543 457.222 142.331 455.235 142.331Z" fill="#C9F8FF" fill-opacity="0.26"></path>
<path fill-rule="evenodd" clip-rule="evenodd" d="M419.036 120.077C419.036 120.077 419.036 120.078 419.036 120.078C419.036 120.078 419.036 120.077 419.036 120.077V120.077ZM419.055 120.042C419.049 120.048 419.044 120.057 419.04 120.066C419.037 120.072 419.036 120.076 419.036 120.077V138.556C419.036 138.563 419.037 138.569 419.037 138.573C419.036 138.572 419.036 138.571 419.035 138.571C419.033 138.569 419.032 138.568 419.032 138.568C419.032 138.568 419.034 138.57 419.036 138.575C419.037 138.577 419.037 138.578 419.037 138.579C419.038 138.58 419.038 138.581 419.038 138.581C419.038 138.581 419.037 138.578 419.037 138.573C419.043 138.578 419.052 138.584 419.061 138.588C419.068 138.59 419.071 138.591 419.072 138.591H419.072C419.072 138.591 419.073 138.591 419.073 138.591C419.073 138.591 419.073 138.591 419.072 138.591H455.165C455.155 138.598 455.147 138.602 455.144 138.603C455.136 138.606 455.167 138.591 455.235 138.591H455.165C455.168 138.589 455.171 138.587 455.174 138.585C455.189 138.575 455.206 138.561 455.223 138.544C455.24 138.527 455.254 138.51 455.265 138.495C455.267 138.492 455.269 138.489 455.27 138.486V138.556C455.27 138.495 455.283 138.464 455.283 138.464C455.283 138.464 455.283 138.464 455.282 138.465C455.281 138.468 455.277 138.475 455.27 138.486V120.077C455.27 120.069 455.27 120.064 455.27 120.06C455.27 120.06 455.271 120.061 455.272 120.061C455.277 120.066 455.274 120.065 455.271 120.058C455.269 120.054 455.269 120.052 455.269 120.052C455.269 120.052 455.269 120.052 455.269 120.052C455.269 120.052 455.269 120.054 455.27 120.06C455.264 120.054 455.255 120.048 455.245 120.044C455.239 120.042 455.235 120.041 455.234 120.041H455.235C455.234 120.041 455.234 120.041 455.234 120.041H419.072C419.064 120.041 419.059 120.041 419.055 120.042ZM419.055 120.042C419.055 120.041 419.056 120.04 419.057 120.04C419.061 120.035 419.061 120.037 419.053 120.041C419.049 120.042 419.046 120.043 419.047 120.043C419.047 120.043 419.049 120.042 419.055 120.042ZM411.557 120.077C411.557 116.154 414.694 112.562 419.072 112.562H455.235C459.158 112.562 462.75 115.698 462.75 120.077V138.556C462.75 142.608 459.287 146.071 455.235 146.071H419.072C415.149 146.071 411.557 142.934 411.557 138.556V120.077Z" fill="#333333"></path>
<path d="M382.317 142.331H346.154C344.167 142.331 342.379 140.742 342.379 138.556V120.077C342.379 118.09 343.968 116.302 346.154 116.302H382.317C384.304 116.302 386.093 117.891 386.093 120.077V138.556C385.894 140.543 384.304 142.331 382.317 142.331Z" fill="#C9F8FF" fill-opacity="0.26"></path>
<path fill-rule="evenodd" clip-rule="evenodd" d="M346.137 120.042C346.131 120.048 346.126 120.057 346.122 120.066C346.119 120.072 346.118 120.076 346.118 120.078L346.118 138.556C346.118 138.563 346.119 138.569 346.119 138.573C346.118 138.572 346.118 138.571 346.117 138.571C346.115 138.569 346.114 138.568 346.114 138.568C346.114 138.568 346.116 138.57 346.118 138.575C346.119 138.577 346.119 138.578 346.12 138.579C346.12 138.58 346.12 138.581 346.12 138.581C346.12 138.581 346.119 138.578 346.119 138.573C346.125 138.578 346.134 138.584 346.143 138.588C346.15 138.59 346.153 138.591 346.154 138.591H382.184C382.184 138.592 382.184 138.592 382.183 138.592C382.157 138.62 382.141 138.629 382.141 138.629C382.141 138.629 382.145 138.627 382.153 138.623C382.183 138.609 382.243 138.591 382.317 138.591H382.184C382.224 138.55 382.269 138.487 382.307 138.406C382.327 138.363 382.342 138.322 382.352 138.282V138.556H386.092L382.371 138.183C382.368 138.214 382.362 138.247 382.352 138.282V120.077C382.352 120.069 382.352 120.064 382.352 120.06C382.352 120.06 382.353 120.061 382.354 120.061C382.359 120.066 382.356 120.065 382.353 120.057C382.351 120.054 382.351 120.052 382.351 120.052C382.351 120.052 382.351 120.052 382.351 120.052C382.351 120.052 382.351 120.054 382.352 120.06C382.346 120.054 382.337 120.048 382.327 120.044C382.321 120.042 382.317 120.041 382.316 120.041C382.316 120.041 382.315 120.041 382.316 120.041H346.154C346.146 120.041 346.141 120.041 346.137 120.042ZM346.137 120.042C346.137 120.041 346.138 120.04 346.139 120.04C346.143 120.035 346.143 120.037 346.135 120.041C346.131 120.042 346.128 120.043 346.129 120.043C346.129 120.043 346.131 120.042 346.137 120.042ZM338.639 120.077C338.639 116.154 341.776 112.562 346.154 112.562H382.317C386.24 112.562 389.832 115.698 389.832 120.077V138.742L389.813 138.928C389.471 142.355 386.665 146.071 382.317 146.071H346.154C342.231 146.071 338.639 142.934 338.639 138.556V120.077Z" fill="#333333"></path>
<path fill-rule="evenodd" clip-rule="evenodd" d="M388.659 97.2273C388.878 100.403 386.482 103.156 383.306 103.376L345.95 105.959C342.774 106.178 340.022 103.782 339.802 100.606C339.582 97.4297 341.979 94.677 345.155 94.4574L382.51 91.8743C385.686 91.6547 388.439 94.0513 388.659 97.2273Z" fill="#333333"></path>
<path fill-rule="evenodd" clip-rule="evenodd" d="M413.921 96.7906C414.162 93.6162 416.932 91.2384 420.106 91.4798L454.083 94.0628C457.258 94.3042 459.636 97.0732 459.394 100.248C459.153 103.422 456.384 105.8 453.21 105.558L419.232 102.975C416.058 102.734 413.68 99.965 413.921 96.7906Z" fill="#333333"></path>
<path fill-rule="evenodd" clip-rule="evenodd" d="M450.818 190.265C451.088 190.345 451.243 190.628 451.163 190.899L450.674 190.754L450.184 190.61C450.264 190.34 450.548 190.185 450.818 190.265ZM413.441 233.74L398.095 233.741C397.813 233.755 397.574 233.538 397.559 233.257C397.545 232.975 397.762 232.736 398.043 232.722L413.43 232.719L413.451 232.72C419.415 232.902 424.687 230.412 429.263 226.519C433.842 222.624 437.697 217.345 440.805 212.015C443.91 206.689 446.256 201.335 447.827 197.311C448.611 195.299 449.202 193.622 449.595 192.448C449.792 191.861 449.94 191.4 450.038 191.087C450.087 190.93 450.124 190.81 450.148 190.73L450.176 190.64L450.182 190.617L450.184 190.61C450.184 190.61 450.184 190.61 450.674 190.754C451.163 190.899 451.163 190.899 451.163 190.899L451.16 190.907L451.153 190.932L451.125 191.027C451.099 191.11 451.062 191.233 451.012 191.392C450.911 191.712 450.762 192.179 450.563 192.772C450.164 193.959 449.569 195.653 448.777 197.682C447.195 201.738 444.827 207.143 441.686 212.529C438.548 217.911 434.625 223.298 429.924 227.297C425.225 231.294 419.722 233.926 413.441 233.74Z" fill="#FF6442"></path>
<path fill-rule="evenodd" clip-rule="evenodd" d="M308.452 361.419C309.35 356.563 314.014 353.355 318.87 354.252C375.912 364.798 435.188 365.611 492.513 356.821C497.395 356.073 501.958 359.423 502.707 364.304C503.455 369.185 500.105 373.749 495.224 374.498C435.939 383.587 374.649 382.751 315.619 371.837C310.763 370.94 307.554 366.275 308.452 361.419Z" fill="#ebebff"></path>
<path fill-rule="evenodd" clip-rule="evenodd" d="M495.018 406.753C495.97 411.598 492.814 416.298 487.969 417.251C435.83 427.498 380.989 427.962 328.428 418.723C323.564 417.868 320.314 413.232 321.169 408.368C322.024 403.505 326.66 400.255 331.524 401.11C381.942 409.972 434.564 409.521 484.52 399.703C489.366 398.751 494.066 401.907 495.018 406.753Z" fill="#ebebff"></path>
<path d="M401.08 116.302C390.795 116.302 390.262 158.177 390.262 167.447C390.262 178.258 411.136 178.258 411.136 167.447C411.136 158.16 411.677 116.302 401.08 116.302Z" fill="#FF734B" fill-opacity="0.72"></path>
<path fill-rule="evenodd" clip-rule="evenodd" d="M400.597 129.175C397.345 129.175 393.919 130.248 390.26 132.687C388.453 133.892 386.012 133.404 384.807 131.597C383.603 129.79 384.091 127.349 385.898 126.145C390.584 123.02 395.503 121.312 400.597 121.312C405.691 121.312 410.609 123.02 415.296 126.145C417.102 127.349 417.591 129.79 416.386 131.597C415.182 133.404 412.741 133.892 410.934 132.687C407.275 130.248 403.848 129.175 400.597 129.175Z" fill="#333333"></path>
<path fill-rule="evenodd" clip-rule="evenodd" d="M342.726 239.739C347.634 240.282 351.173 244.701 350.63 249.609C350.298 252.614 351.347 258.476 355.186 265.037C358.895 271.375 364.785 277.598 372.978 281.675C392.245 291.264 414.116 290.555 432.278 281.652C445.659 275.092 449.982 263.951 449.982 252.047C449.982 247.109 453.985 243.106 458.923 243.106C463.862 243.106 467.865 247.109 467.865 252.047C467.865 268.881 461.192 287.394 440.15 297.709C417.282 308.919 389.548 309.897 365.01 297.685C353.349 291.882 345.007 283.051 339.752 274.069C334.626 265.31 331.977 255.586 332.856 247.643C333.399 242.734 337.818 239.196 342.726 239.739Z" fill="#ebebff"></path>
<path fill-rule="evenodd" clip-rule="evenodd" d="M361.487 121.665C362.639 122.59 362.823 124.274 361.898 125.426L353.962 135.309C353.037 136.461 351.354 136.645 350.202 135.72C349.049 134.795 348.865 133.112 349.79 131.96L357.726 122.077C358.651 120.924 360.335 120.74 361.487 121.665ZM380.179 121.665C381.331 122.59 381.515 124.274 380.59 125.426L372.654 135.309C371.729 136.461 370.046 136.645 368.894 135.72C367.742 134.795 367.558 133.112 368.483 131.96L376.418 122.077C377.343 120.925 379.027 120.74 380.179 121.665Z" fill="white" fill-opacity="0.51"></path>
<path fill-rule="evenodd" clip-rule="evenodd" d="M433.997 121.665C435.149 122.59 435.333 124.274 434.408 125.426L426.472 135.309C425.547 136.461 423.863 136.645 422.711 135.72C421.559 134.795 421.375 133.112 422.3 131.96L430.236 122.077C431.161 120.924 432.845 120.74 433.997 121.665ZM452.689 121.665C453.841 122.59 454.025 124.274 453.1 125.426L445.164 135.309C444.239 136.461 442.555 136.645 441.403 135.72C440.251 134.795 440.067 133.112 440.992 131.96L448.928 122.077C449.853 120.925 451.537 120.74 452.689 121.665Z" fill="white" fill-opacity="0.51"></path>
</svg>
